<?xml version="1.0" encoding="UTF-8" standalone="no"?>
<!DOCTYPE svg PUBLIC "-//W3C//DTD SVG 1.1//EN" "http://www.w3.org/Graphics/SVG/1.1/DTD/svg11.dtd">
<!-- Created with Vectornator (http://vectornator.io/) -->
<svg height="100%" stroke-miterlimit="10" style="fill-rule:nonzero;clip-rule:evenodd;stroke-linecap:round;stroke-linejoin:round;" version="1.1" viewBox="0 0 639.661 600" width="100%" xml:space="preserve" xmlns="http://www.w3.org/2000/svg" xmlns:vectornator="http://vectornator.io" xmlns:xlink="http://www.w3.org/1999/xlink">
<defs>
<linearGradient gradientTransform="matrix(0.460759 -0.887526 0.887526 0.460759 -104.512 428.046)" gradientUnits="userSpaceOnUse" id="LinearGradient" x1="12.3219" x2="587.678" y1="300.03" y2="300.03">
<stop offset="0.0848289" stop-color="#ce0a6b"/>
<stop offset="0.570018" stop-color="#a034dd"/>
<stop offset="1" stop-color="#0a97ce"/>
</linearGradient>
<clipPath id="TextBounds">
<rect height="464" width="535.199" x="131.098" y="7.69107"/>
</clipPath>
</defs>
<clipPath id="ArtboardFrame">
<rect height="600" width="639.661" x="0" y="0"/>
</clipPath>
<g clip-path="url(#ArtboardFrame)" id="layer1" vectornator:layerName="layer1">
<g opacity="1">
<clipPath id="ClipPath">
<path d="M618.697 364.53C630.271 364.53 639.661 355.101 639.661 343.533C639.661 332.039 630.272 322.609 618.697 322.609C607.204 322.609 597.734 332.039 597.734 343.533C597.734 355.101 607.205 364.53 618.697 364.53Z"/>
</clipPath>
<g clip-path="url(#ClipPath)">
<path d="M818.369 448.632C817.198 448.632 815.909 449.114 814.598 449.859C817.685 448.955 819.137 448.632 818.369 448.632M894.798 463.537L895.56 452.36L883.766 453.097L885.323 463.537L894.798 463.537M761.647 656.755C759.267 654.517 760.86 644.809 760.86 644.809C760.86 644.809 725.4 626.178 686.798 614.975C682.038 613.595 684.443 603.79 689.152 600.076L687.59 589.607C686.81 584.402 695.479 559.034 704.142 556.814C712.812 554.561 703.348 571.718 703.348 571.718L694.691 576.94C694.691 576.94 704.929 588.868 707.302 588.868C709.658 588.868 713.598 582.888 713.598 582.888L702.574 575.451L712.811 570.96L713.458 567.031L715.178 566.483L732.14 540.797C743.86 536.002 758.265 530.059 760.095 529.186C763.255 527.704 785.306 515.032 789.247 512.055C793.2 509.052 801.845 509.816 804.993 509.816C808.159 509.816 812.876 508.315 813.662 500.096C814.449 491.897 817.603 490.403 819.976 492.647C822.343 494.862 817.603 498.608 823.124 500.096C828.635 501.597 833.363 505.326 837.31 501.597C840.19 498.87 836.334 495.757 833.74 493.409L877.486 493.409L882.221 479.956L871.977 478.468L834.144 474.746L834.144 470.262L831.13 470.775C835.224 448.267 859.549 451.978 841.234 438.952C840.123 438.153 824.102 464.198 820.021 463.693C812.631 462.716 803.096 462.637 801.065 465.041C798.366 468.213 807.104 454.131 814.621 449.862C805.653 452.504 789.583 444.341 760.607 464.809C750.809 471.735 726.214 499.793 716.094 510.581C673.337 561.06 669.89 604.246 669.89 606.162C669.89 609.889 678.944 611.994 679.724 616.485C680.517 620.933 664.758 635.875 664.758 643.331C664.758 646.759 656.87 684 674.196 730.601C689.565 774.809 719.302 813.798 723.121 816.239L734.072 810.43C734.072 810.43 715.952 778.351 715.172 775.361C714.391 772.38 735.654 729.113 745.909 730.624C756.147 732.076 753.785 735.092 760.088 731.356C766.397 727.648 770.332 697.032 777.422 694.066C784.517 691.067 792.388 687.344 791.606 679.886C790.785 672.404 764.002 658.988 761.647 656.755M932.614 437.436L911.344 429.975L915.286 441.921L932.614 437.436M853.035 465.039C855.408 465.039 902.668 433.721 897.947 432.966C893.23 432.228 892.443 432.966 879.814 431.471C867.227 429.982 853.818 449.378 850.675 452.374C847.52 455.355 848.582 465.039 853.035 465.039M1069.96 689.961L1076.07 682.044L1069.96 679.898L1065.39 685.646L1060.06 693.552L1064.62 695.701L1069.96 689.961M1096.64 715.857L1095.11 704.339L1085.22 704.339L1084.45 712.964L1075.28 711.535L1073.01 702.188L1068.44 699.306L1063.09 705.776L1057.76 704.348L1056.22 709.361L1062.34 710.826L1062.34 757.537L1083.91 762.734C1083.41 763.589 1083.04 764.322 1082.92 764.711C1081.38 769.753 1089.01 771.936 1094.34 769.753C1096.32 768.959 1108.76 764.177 1112.69 754.795C1118.19 741.726 1121.74 722.91 1122.69 716.82L1120.27 711.535L1105.02 717.297L1096.61 715.856L1096.64 715.856M1089 524.549C1054.11 471.651 970.292 437.084 970.292 437.084L948.709 448.389L945.644 443.374L938.03 440.488L938.03 446.967L944.889 452.727L940.325 454.88L922.778 456.308L883.126 477.882L886.933 495.137L882.344 496.583L880.075 500.171L893.039 519.566L893.795 526.051L883.123 528.206L883.123 541.14L877.029 542.574L877.791 552.646L825.924 588.612L827.45 608.716C831.256 613.755 861.006 643.956 861.006 643.956C861.006 643.956 895.313 645.378 902.94 641.083C910.572 636.769 905.22 645.397 907.521 647.556C909.791 649.721 910.572 664.81 912.841 666.251C915.136 667.682 912.841 676.299 915.891 679.204C918.943 682.057 918.943 716.58 918.943 716.58C918.943 716.58 937.245 747.486 937.245 755.395C937.245 763.302 936.476 762.582 950.971 761.861C965.457 761.154 968.506 755.395 971.558 753.248C974.609 751.099 974.609 746.059 977.658 741.728C980.734 737.405 986.054 720.896 992.924 715.149C999.769 709.377 1018.09 705.059 1019.6 695.015C1021.12 684.938 1027.98 677.029 1027.98 677.029L1060.95 642.155L1060.02 646.841L1059.27 664.803L1069.19 661.214L1068.43 641.788L1064.88 638.023L1065.38 637.475C1065.38 637.475 1063.09 633.161 1060.05 633.161C1057 633.161 1038.68 637.475 1035.65 636.76C1032.59 636.035 1019.62 601.521 1017.34 600.105C1015.05 598.665 1000.58 574.926 1000.58 574.926C1000.58 574.926 1034.11 615.187 1039.45 631.002C1042.55 640.214 1054.19 631.636 1063.66 622.027L1066.16 628.14L1072.25 626.688L1071.5 619.502L1078.35 619.502L1078.35 630.282L1076.07 636.042L1075.29 645.378L1081.4 651.143L1084.46 646.121L1094.34 636.762L1105.78 631.01L1108.85 636.762L1110.37 644.675L1107.32 653.296L1101.22 658.33L1098.17 671.27L1098.17 677.737L1091.31 673.417L1090.56 659.771L1080.65 660.501L1076.08 672.71L1082.94 682.787L1098.95 684.949L1111.91 672.71L1113.43 649.012L1119.21 641.393C1122.96 651.05 1125.65 661.154 1125.65 670.575C1125.65 680.898 1133.83 665.363 1129.83 633.882C1129.83 633.881 1123.56 559.105 1089 524.549ZM936.494 555.523L895.322 554.066L912.844 539.698L921.996 539.698L936.494 549.752L936.494 555.523M986.839 550.491L986.839 556.958L969.306 556.958L970.831 561.283L960.14 562.735L959.397 566.304L951.771 564.889L938.032 561.997L940.327 558.415L942.621 554.084L950.246 546.176L953.309 551.936L964.73 551.209L970.832 544.729L994.479 549.049L986.839 550.491M988.353 541.138L979.2 542.572L977.688 536.093L989.11 534.665L990.648 528.198L999.042 536.831L988.353 541.126L988.353 541.138M1032.6 764.714L1027.25 769.035L1028.01 779.822L1034.87 779.822L1034.87 770.5L1041 762.568L1041 746.046L1037.16 745.3L1032.6 764.714L1032.6 764.714M981.506 743.165C981.506 743.165 976.162 744.555 982.252 746.752C988.353 748.925 1012.76 711.537 1012.76 711.537L992.161 724.473L981.494 743.166L981.506 743.166M939.995 880.954L935.432 876.609L926.28 875.158L924.768 879.515L912.565 878.075L911.798 872.293L902.65 872.293L892.743 878.075L875.22 878.075L873.694 873.733L845.495 870.816L840.919 875.171L829.503 872.293L827.972 862.14L822.64 861.395L816.539 872.293L795.961 871.561C799.646 873.293 830.365 891.633 877.496 895.45C939.996 900.503 969.721 885.325 969.721 885.325L967.441 883.128L939.996 880.968L939.996 880.954C939.996 880.954 939.995 880.954 939.995 880.954Z" fill="#000000" fill-rule="nonzero" opacity="1" stroke="none"/>
</g>
</g>
<g opacity="1">
<clipPath id="ClipPath_2">
<path d="M-96.6016-213.297C-85.0284-213.297-75.6376-222.726-75.6376-234.294C-75.6376-245.788-85.0272-255.218-96.6016-255.218C-108.095-255.218-117.564-245.788-117.564-234.294C-117.564-222.726-108.094-213.297-96.6016-213.297Z"/>
</clipPath>
<g clip-path="url(#ClipPath_2)">
<path d="M103.07-129.194C101.899-129.194 100.61-128.712 99.2996-127.968C102.386-128.871 103.838-129.194 103.07-129.194M179.499-114.29L180.261-125.467L168.467-124.729L170.024-114.29L179.499-114.29M46.3479 78.9286C43.9684 76.6899 45.5608 66.9827 45.5608 66.9827C45.5608 66.9827 10.1013 48.3509-28.5013 37.1482C-33.2614 35.7687-30.856 25.9635-26.1465 22.2495L-27.7085 11.7799C-28.4889 6.57496-19.8199-18.7922-11.1566-21.0129C-2.48659-23.2652-11.9506-6.10862-11.9506-6.10862L-20.6082-0.886762C-20.6082-0.886762-10.3695 11.0412-7.99673 11.0412C-5.64087 11.0412-1.70055 5.06144-1.70055 5.06144L-12.7253-2.3755L-2.48771-6.8665L-1.84131-10.7956L-0.120592-11.344L16.8411-37.0298C28.5607-41.8249 42.9662-47.7674 44.7961-48.6402C47.956-50.1222 70.0067-62.7945 73.9482-65.772C77.9009-68.7742 86.5462-68.0107 89.6937-68.0107C92.8604-68.0107 97.5766-69.5118 98.3626-77.7303C99.1498-85.9297 102.304-87.424 104.677-85.1797C107.044-82.9646 102.304-79.2191 107.825-77.7303C113.336-76.2292 118.064-72.5006 122.011-76.2292C124.891-78.9567 121.035-82.0693 118.441-84.4173L162.187-84.4173L166.922-97.8711L156.678-99.3587L118.845-103.081L118.845-107.565L115.831-107.051C119.925-129.559 144.25-125.849 125.935-138.875C124.824-139.674 108.803-113.629 104.722-114.134C97.3322-115.111 87.7973-115.19 85.7658-112.786C83.0676-109.613 91.8052-123.695 99.3221-127.965C90.3536-125.323 74.2838-133.486 45.3085-113.018C35.5101-106.092 10.9155-78.0333 0.794948-67.2461C-41.9619-16.7663-45.4089 26.4196-45.4089 28.3351C-45.4089 32.0626-36.3549 34.1673-35.5745 38.6583C-34.7817 43.1065-50.5407 58.048-50.5407 65.5041C-50.5407 68.932-58.4292 106.173-41.1026 152.774C-25.7344 196.983 4.00329 235.972 7.82198 238.412L18.7736 232.603C18.7736 232.603 0.653056 200.525-0.127351 197.535C-0.907757 194.554 20.3547 151.287 30.6103 152.797C40.8479 154.25 38.4864 157.265 44.7894 153.529C51.0979 149.822 55.0326 119.206 62.1227 116.24C69.2185 113.241 77.089 109.518 76.3074 102.059C75.4865 94.5773 48.7027 81.1618 46.3479 78.9286M217.315-140.39L196.045-147.852L199.987-135.906L217.315-140.39M137.737-112.788C140.109-112.788 187.369-144.105 182.648-144.861C177.931-145.599 177.144-144.861 164.515-146.355C151.928-147.844 138.519-128.449 135.376-125.452C132.221-122.471 133.283-112.788 137.737-112.788M354.662 112.135L360.766 104.217L354.662 102.072L350.088 107.819L344.757 115.725L349.318 117.875L354.662 112.135M381.337 138.03L379.81 126.512L369.917 126.512L369.149 135.137L359.983 133.708L357.713 124.361L353.138 121.479L347.794 127.949L342.462 126.521L340.924 131.535L347.036 133L347.036 179.71L368.612 184.907C368.111 185.762 367.744 186.495 367.622 186.885C366.086 191.927 373.71 194.109 379.045 191.927C381.02 191.133 393.456 186.35 397.396 176.968C402.89 163.899 406.438 145.083 407.392 138.993L404.976 133.708L389.722 139.47L381.315 138.029L381.337 138.029M373.699-53.2776C338.813-106.175 254.993-140.743 254.993-140.743L233.41-129.438L230.345-134.452L222.731-137.339L222.731-130.86L229.59-125.1L225.026-122.947L207.479-121.519L167.827-99.9443L171.634-82.6898L167.045-81.2439L164.776-77.656L177.74-58.2607L178.496-51.7753L167.824-49.6211L167.824-36.6864L161.73-35.2528L162.492-25.1807L110.625 10.7855L112.151 30.8892C115.957 35.9286 145.707 66.1291 145.707 66.1291C145.707 66.1291 180.014 67.5514 187.641 63.2563C195.273 58.9421 189.921 67.5705 192.222 69.7293C194.492 71.8948 195.273 86.9838 197.542 88.4241C199.837 89.8555 197.542 98.4726 200.592 101.377C203.644 104.23 203.644 138.753 203.644 138.753C203.644 138.753 221.946 169.66 221.946 177.568C221.946 185.475 221.177 184.755 235.672 184.035C250.158 183.327 253.207 177.568 256.259 175.421C259.31 173.272 259.31 168.233 262.359 163.902C265.435 159.579 270.755 143.069 277.625 137.323C284.47 131.55 302.786 127.233 304.299 117.189C305.826 107.111 312.68 99.2023 312.68 99.2023L345.651 64.3284L344.724 69.0142L343.969 86.9759L353.89 83.387L353.133 63.9613L349.581 60.1966L350.084 59.6482C350.084 59.6482 347.79 55.334 344.753 55.334C341.699 55.334 323.385 59.6482 320.347 58.9331C317.294 58.2079 304.325 23.6943 302.044 22.2788C299.748 20.8385 285.277-2.90029 285.277-2.90029C285.277-2.90029 318.809 37.3599 324.152 53.1752C327.25 62.3869 338.892 53.8092 348.361 44.2L350.863 50.3137L356.952 48.861L356.196 41.6752L363.052 41.6752L363.052 52.4556L360.773 58.2158L359.991 67.5514L366.105 73.316L369.157 68.2946L379.04 58.9354L390.483 53.1831L393.548 58.9354L395.072 66.8487L392.022 75.4692L385.922 80.503L382.872 93.4433L382.872 99.9106L376.013 95.5908L375.257 81.9444L365.347 82.6741L360.785 94.8836L367.642 104.96L383.651 107.122L396.61 94.8836L398.134 71.1854L403.908 63.566C407.666 73.2237 410.352 83.3273 410.352 92.7485C410.352 103.072 418.526 87.5367 414.526 56.0559C414.53 56.0547 408.257-18.7213 373.699-53.2776ZM221.195-22.3035L180.023-23.7607L197.545-38.1289L206.697-38.1289L221.195-28.0749L221.195-22.3035M271.54-27.3361L271.54-20.8688L254.007-20.8688L255.532-16.5433L244.841-15.0917L244.098-11.523L236.472-12.9375L222.733-15.8294L225.028-19.4116L227.322-23.7427L234.947-31.6503L238.01-25.8902L249.432-26.6177L255.533-33.0974L279.18-28.7776L271.54-27.3361M273.054-36.6886L263.901-35.2551L262.389-41.7337L273.811-43.1616L275.349-49.629L283.743-40.9961L273.054-36.701L273.054-36.6886M317.299 186.887L311.954 191.208L312.713 201.995L319.569 201.995L319.569 192.673L325.696 184.742L325.696 168.219L321.863 167.474L317.299 186.887L317.299 186.887M266.207 165.339C266.207 165.339 260.863 166.728 266.953 168.925C273.054 171.099 297.46 133.71 297.46 133.71L276.862 146.646L266.195 165.34L266.207 165.34M224.696 303.127L220.133 298.783L210.981 297.331L209.469 301.688L197.266 300.249L196.499 294.466L187.351 294.466L177.444 300.249L159.921 300.249L158.395 295.906L130.196 292.99L125.621 297.344L114.204 294.466L112.673 284.313L107.341 283.569L101.24 294.466L80.6622 293.734C84.3469 295.466 115.066 313.806 162.197 317.624C224.697 322.677 254.423 307.499 254.423 307.499L252.142 305.302L224.697 303.142L224.697 303.127C224.697 303.127 224.696 303.127 224.696 303.127Z" fill="#000000" fill-rule="nonzero" opacity="1" stroke="none"/>
</g>
</g>
<g opacity="1">
<clipPath id="ClipPath_3">
<path d="M-96.6016-213.297C-85.0284-213.297-75.6376-222.726-75.6376-234.294C-75.6376-245.788-85.0272-255.218-96.6016-255.218C-108.095-255.218-117.564-245.788-117.564-234.294C-117.564-222.726-108.094-213.297-96.6016-213.297Z"/>
</clipPath>
<g clip-path="url(#ClipPath_3)">
<path d="M103.07-129.194C101.899-129.194 100.61-128.712 99.2996-127.968C102.386-128.871 103.838-129.194 103.07-129.194M179.499-114.29L180.261-125.467L168.467-124.729L170.024-114.29L179.499-114.29M46.3479 78.9286C43.9684 76.6899 45.5608 66.9827 45.5608 66.9827C45.5608 66.9827 10.1013 48.3509-28.5013 37.1482C-33.2614 35.7687-30.856 25.9635-26.1465 22.2495L-27.7085 11.7799C-28.4889 6.57496-19.8199-18.7922-11.1566-21.0129C-2.48659-23.2652-11.9506-6.10862-11.9506-6.10862L-20.6082-0.886762C-20.6082-0.886762-10.3695 11.0412-7.99673 11.0412C-5.64087 11.0412-1.70055 5.06144-1.70055 5.06144L-12.7253-2.3755L-2.48771-6.8665L-1.84131-10.7956L-0.120592-11.344L16.8411-37.0298C28.5607-41.8249 42.9662-47.7674 44.7961-48.6402C47.956-50.1222 70.0067-62.7945 73.9482-65.772C77.9009-68.7742 86.5462-68.0107 89.6937-68.0107C92.8604-68.0107 97.5766-69.5118 98.3626-77.7303C99.1498-85.9297 102.304-87.424 104.677-85.1797C107.044-82.9646 102.304-79.2191 107.825-77.7303C113.336-76.2292 118.064-72.5006 122.011-76.2292C124.891-78.9567 121.035-82.0693 118.441-84.4173L162.187-84.4173L166.922-97.8711L156.678-99.3587L118.845-103.081L118.845-107.565L115.831-107.051C119.925-129.559 144.25-125.849 125.935-138.875C124.824-139.674 108.803-113.629 104.722-114.134C97.3322-115.111 87.7973-115.19 85.7658-112.786C83.0676-109.613 91.8052-123.695 99.3221-127.965C90.3536-125.323 74.2838-133.486 45.3085-113.018C35.5101-106.092 10.9155-78.0333 0.794948-67.2461C-41.9619-16.7663-45.4089 26.4196-45.4089 28.3351C-45.4089 32.0626-36.3549 34.1673-35.5745 38.6583C-34.7817 43.1065-50.5407 58.048-50.5407 65.5041C-50.5407 68.932-58.4292 106.173-41.1026 152.774C-25.7344 196.983 4.00329 235.972 7.82198 238.412L18.7736 232.603C18.7736 232.603 0.653056 200.525-0.127351 197.535C-0.907757 194.554 20.3547 151.287 30.6103 152.797C40.8479 154.25 38.4864 157.265 44.7894 153.529C51.0979 149.822 55.0326 119.206 62.1227 116.24C69.2185 113.241 77.089 109.518 76.3074 102.059C75.4865 94.5773 48.7027 81.1618 46.3479 78.9286M217.315-140.39L196.045-147.852L199.987-135.906L217.315-140.39M137.737-112.788C140.109-112.788 187.369-144.105 182.648-144.861C177.931-145.599 177.144-144.861 164.515-146.355C151.928-147.844 138.519-128.449 135.376-125.452C132.221-122.471 133.283-112.788 137.737-112.788M354.662 112.135L360.766 104.217L354.662 102.072L350.088 107.819L344.757 115.725L349.318 117.875L354.662 112.135M381.337 138.03L379.81 126.512L369.917 126.512L369.149 135.137L359.983 133.708L357.713 124.361L353.138 121.479L347.794 127.949L342.462 126.521L340.924 131.535L347.036 133L347.036 179.71L368.612 184.907C368.111 185.762 367.744 186.495 367.622 186.885C366.086 191.927 373.71 194.109 379.045 191.927C381.02 191.133 393.456 186.35 397.396 176.968C402.89 163.899 406.438 145.083 407.392 138.993L404.976 133.708L389.722 139.47L381.315 138.029L381.337 138.029M373.699-53.2776C338.813-106.175 254.993-140.743 254.993-140.743L233.41-129.438L230.345-134.452L222.731-137.339L222.731-130.86L229.59-125.1L225.026-122.947L207.479-121.519L167.827-99.9443L171.634-82.6898L167.045-81.2439L164.776-77.656L177.74-58.2607L178.496-51.7753L167.824-49.6211L167.824-36.6864L161.73-35.2528L162.492-25.1807L110.625 10.7855L112.151 30.8892C115.957 35.9286 145.707 66.1291 145.707 66.1291C145.707 66.1291 180.014 67.5514 187.641 63.2563C195.273 58.9421 189.921 67.5705 192.222 69.7293C194.492 71.8948 195.273 86.9838 197.542 88.4241C199.837 89.8555 197.542 98.4726 200.592 101.377C203.644 104.23 203.644 138.753 203.644 138.753C203.644 138.753 221.946 169.66 221.946 177.568C221.946 185.475 221.177 184.755 235.672 184.035C250.158 183.327 253.207 177.568 256.259 175.421C259.31 173.272 259.31 168.233 262.359 163.902C265.435 159.579 270.755 143.069 277.625 137.323C284.47 131.55 302.786 127.233 304.299 117.189C305.826 107.111 312.68 99.2023 312.68 99.2023L345.651 64.3284L344.724 69.0142L343.969 86.9759L353.89 83.387L353.133 63.9613L349.581 60.1966L350.084 59.6482C350.084 59.6482 347.79 55.334 344.753 55.334C341.699 55.334 323.385 59.6482 320.347 58.9331C317.294 58.2079 304.325 23.6943 302.044 22.2788C299.748 20.8385 285.277-2.90029 285.277-2.90029C285.277-2.90029 318.809 37.3599 324.152 53.1752C327.25 62.3869 338.892 53.8092 348.361 44.2L350.863 50.3137L356.952 48.861L356.196 41.6752L363.052 41.6752L363.052 52.4556L360.773 58.2158L359.991 67.5514L366.105 73.316L369.157 68.2946L379.04 58.9354L390.483 53.1831L393.548 58.9354L395.072 66.8487L392.022 75.4692L385.922 80.503L382.872 93.4433L382.872 99.9106L376.013 95.5908L375.257 81.9444L365.347 82.6741L360.785 94.8836L367.642 104.96L383.651 107.122L396.61 94.8836L398.134 71.1854L403.908 63.566C407.666 73.2237 410.352 83.3273 410.352 92.7485C410.352 103.072 418.526 87.5367 414.526 56.0559C414.53 56.0547 408.257-18.7213 373.699-53.2776ZM221.195-22.3035L180.023-23.7607L197.545-38.1289L206.697-38.1289L221.195-28.0749L221.195-22.3035M271.54-27.3361L271.54-20.8688L254.007-20.8688L255.532-16.5433L244.841-15.0917L244.098-11.523L236.472-12.9375L222.733-15.8294L225.028-19.4116L227.322-23.7427L234.947-31.6503L238.01-25.8902L249.432-26.6177L255.533-33.0974L279.18-28.7776L271.54-27.3361M273.054-36.6886L263.901-35.2551L262.389-41.7337L273.811-43.1616L275.349-49.629L283.743-40.9961L273.054-36.701L273.054-36.6886M317.299 186.887L311.954 191.208L312.713 201.995L319.569 201.995L319.569 192.673L325.696 184.742L325.696 168.219L321.863 167.474L317.299 186.887L317.299 186.887M266.207 165.339C266.207 165.339 260.863 166.728 266.953 168.925C273.054 171.099 297.46 133.71 297.46 133.71L276.862 146.646L266.195 165.34L266.207 165.34M224.696 303.127L220.133 298.783L210.981 297.331L209.469 301.688L197.266 300.249L196.499 294.466L187.351 294.466L177.444 300.249L159.921 300.249L158.395 295.906L130.196 292.99L125.621 297.344L114.204 294.466L112.673 284.313L107.341 283.569L101.24 294.466L80.6622 293.734C84.3469 295.466 115.066 313.806 162.197 317.624C224.697 322.677 254.423 307.499 254.423 307.499L252.142 305.302L224.697 303.142L224.697 303.127C224.697 303.127 224.696 303.127 224.696 303.127Z" fill="#000000" fill-rule="nonzero" opacity="1" stroke="none"/>
</g>
</g>
<g opacity="1">
<clipPath id="ClipPath_4">
<path d="M-96.6016-213.297C-85.0284-213.297-75.6376-222.726-75.6376-234.294C-75.6376-245.788-85.0272-255.218-96.6016-255.218C-108.095-255.218-117.564-245.788-117.564-234.294C-117.564-222.726-108.094-213.297-96.6016-213.297Z"/>
</clipPath>
<g clip-path="url(#ClipPath_4)">
<path d="M103.07-129.194C101.899-129.194 100.61-128.712 99.2996-127.968C102.386-128.871 103.838-129.194 103.07-129.194M179.499-114.29L180.261-125.467L168.467-124.729L170.024-114.29L179.499-114.29M46.3479 78.9286C43.9684 76.6899 45.5608 66.9827 45.5608 66.9827C45.5608 66.9827 10.1013 48.3509-28.5013 37.1482C-33.2614 35.7687-30.856 25.9635-26.1465 22.2495L-27.7085 11.7799C-28.4889 6.57496-19.8199-18.7922-11.1566-21.0129C-2.48659-23.2652-11.9506-6.10862-11.9506-6.10862L-20.6082-0.886762C-20.6082-0.886762-10.3695 11.0412-7.99673 11.0412C-5.64087 11.0412-1.70055 5.06144-1.70055 5.06144L-12.7253-2.3755L-2.48771-6.8665L-1.84131-10.7956L-0.120592-11.344L16.8411-37.0298C28.5607-41.8249 42.9662-47.7674 44.7961-48.6402C47.956-50.1222 70.0067-62.7945 73.9482-65.772C77.9009-68.7742 86.5462-68.0107 89.6937-68.0107C92.8604-68.0107 97.5766-69.5118 98.3626-77.7303C99.1498-85.9297 102.304-87.424 104.677-85.1797C107.044-82.9646 102.304-79.2191 107.825-77.7303C113.336-76.2292 118.064-72.5006 122.011-76.2292C124.891-78.9567 121.035-82.0693 118.441-84.4173L162.187-84.4173L166.922-97.8711L156.678-99.3587L118.845-103.081L118.845-107.565L115.831-107.051C119.925-129.559 144.25-125.849 125.935-138.875C124.824-139.674 108.803-113.629 104.722-114.134C97.3322-115.111 87.7973-115.19 85.7658-112.786C83.0676-109.613 91.8052-123.695 99.3221-127.965C90.3536-125.323 74.2838-133.486 45.3085-113.018C35.5101-106.092 10.9155-78.0333 0.794948-67.2461C-41.9619-16.7663-45.4089 26.4196-45.4089 28.3351C-45.4089 32.0626-36.3549 34.1673-35.5745 38.6583C-34.7817 43.1065-50.5407 58.048-50.5407 65.5041C-50.5407 68.932-58.4292 106.173-41.1026 152.774C-25.7344 196.983 4.00329 235.972 7.82198 238.412L18.7736 232.603C18.7736 232.603 0.653056 200.525-0.127351 197.535C-0.907757 194.554 20.3547 151.287 30.6103 152.797C40.8479 154.25 38.4864 157.265 44.7894 153.529C51.0979 149.822 55.0326 119.206 62.1227 116.24C69.2185 113.241 77.089 109.518 76.3074 102.059C75.4865 94.5773 48.7027 81.1618 46.3479 78.9286M217.315-140.39L196.045-147.852L199.987-135.906L217.315-140.39M137.737-112.788C140.109-112.788 187.369-144.105 182.648-144.861C177.931-145.599 177.144-144.861 164.515-146.355C151.928-147.844 138.519-128.449 135.376-125.452C132.221-122.471 133.283-112.788 137.737-112.788M354.662 112.135L360.766 104.217L354.662 102.072L350.088 107.819L344.757 115.725L349.318 117.875L354.662 112.135M381.337 138.03L379.81 126.512L369.917 126.512L369.149 135.137L359.983 133.708L357.713 124.361L353.138 121.479L347.794 127.949L342.462 126.521L340.924 131.535L347.036 133L347.036 179.71L368.612 184.907C368.111 185.762 367.744 186.495 367.622 186.885C366.086 191.927 373.71 194.109 379.045 191.927C381.02 191.133 393.456 186.35 397.396 176.968C402.89 163.899 406.438 145.083 407.392 138.993L404.976 133.708L389.722 139.47L381.315 138.029L381.337 138.029M373.699-53.2776C338.813-106.175 254.993-140.743 254.993-140.743L233.41-129.438L230.345-134.452L222.731-137.339L222.731-130.86L229.59-125.1L225.026-122.947L207.479-121.519L167.827-99.9443L171.634-82.6898L167.045-81.2439L164.776-77.656L177.74-58.2607L178.496-51.7753L167.824-49.6211L167.824-36.6864L161.73-35.2528L162.492-25.1807L110.625 10.7855L112.151 30.8892C115.957 35.9286 145.707 66.1291 145.707 66.1291C145.707 66.1291 180.014 67.5514 187.641 63.2563C195.273 58.9421 189.921 67.5705 192.222 69.7293C194.492 71.8948 195.273 86.9838 197.542 88.4241C199.837 89.8555 197.542 98.4726 200.592 101.377C203.644 104.23 203.644 138.753 203.644 138.753C203.644 138.753 221.946 169.66 221.946 177.568C221.946 185.475 221.177 184.755 235.672 184.035C250.158 183.327 253.207 177.568 256.259 175.421C259.31 173.272 259.31 168.233 262.359 163.902C265.435 159.579 270.755 143.069 277.625 137.323C284.47 131.55 302.786 127.233 304.299 117.189C305.826 107.111 312.68 99.2023 312.68 99.2023L345.651 64.3284L344.724 69.0142L343.969 86.9759L353.89 83.387L353.133 63.9613L349.581 60.1966L350.084 59.6482C350.084 59.6482 347.79 55.334 344.753 55.334C341.699 55.334 323.385 59.6482 320.347 58.9331C317.294 58.2079 304.325 23.6943 302.044 22.2788C299.748 20.8385 285.277-2.90029 285.277-2.90029C285.277-2.90029 318.809 37.3599 324.152 53.1752C327.25 62.3869 338.892 53.8092 348.361 44.2L350.863 50.3137L356.952 48.861L356.196 41.6752L363.052 41.6752L363.052 52.4556L360.773 58.2158L359.991 67.5514L366.105 73.316L369.157 68.2946L379.04 58.9354L390.483 53.1831L393.548 58.9354L395.072 66.8487L392.022 75.4692L385.922 80.503L382.872 93.4433L382.872 99.9106L376.013 95.5908L375.257 81.9444L365.347 82.6741L360.785 94.8836L367.642 104.96L383.651 107.122L396.61 94.8836L398.134 71.1854L403.908 63.566C407.666 73.2237 410.352 83.3273 410.352 92.7485C410.352 103.072 418.526 87.5367 414.526 56.0559C414.53 56.0547 408.257-18.7213 373.699-53.2776ZM221.195-22.3035L180.023-23.7607L197.545-38.1289L206.697-38.1289L221.195-28.0749L221.195-22.3035M271.54-27.3361L271.54-20.8688L254.007-20.8688L255.532-16.5433L244.841-15.0917L244.098-11.523L236.472-12.9375L222.733-15.8294L225.028-19.4116L227.322-23.7427L234.947-31.6503L238.01-25.8902L249.432-26.6177L255.533-33.0974L279.18-28.7776L271.54-27.3361M273.054-36.6886L263.901-35.2551L262.389-41.7337L273.811-43.1616L275.349-49.629L283.743-40.9961L273.054-36.701L273.054-36.6886M317.299 186.887L311.954 191.208L312.713 201.995L319.569 201.995L319.569 192.673L325.696 184.742L325.696 168.219L321.863 167.474L317.299 186.887L317.299 186.887M266.207 165.339C266.207 165.339 260.863 166.728 266.953 168.925C273.054 171.099 297.46 133.71 297.46 133.71L276.862 146.646L266.195 165.34L266.207 165.34M224.696 303.127L220.133 298.783L210.981 297.331L209.469 301.688L197.266 300.249L196.499 294.466L187.351 294.466L177.444 300.249L159.921 300.249L158.395 295.906L130.196 292.99L125.621 297.344L114.204 294.466L112.673 284.313L107.341 283.569L101.24 294.466L80.6622 293.734C84.3469 295.466 115.066 313.806 162.197 317.624C224.697 322.677 254.423 307.499 254.423 307.499L252.142 305.302L224.697 303.142L224.697 303.127C224.697 303.127 224.696 303.127 224.696 303.127Z" fill="#000000" fill-rule="nonzero" opacity="1" stroke="none"/>
</g>
</g>
<g opacity="1">
<clipPath id="ClipPath_5">
<path d="M-77.653-167.82C-66.0798-167.82-56.6891-177.25-56.6891-188.817C-56.6891-200.312-66.0787-209.742-77.653-209.742C-89.1463-209.742-98.6159-200.312-98.6159-188.817C-98.6159-177.25-89.1452-167.82-77.653-167.82Z"/>
</clipPath>
<g clip-path="url(#ClipPath_5)">
<path d="M122.018-83.7179C120.847-83.7179 119.559-83.2359 118.248-82.4916C121.335-83.3947 122.786-83.7179 122.018-83.7179M198.448-68.8136L199.21-79.9904L187.416-79.2528L188.972-68.8136L198.448-68.8136M65.2964 124.405C62.9169 122.166 64.5093 112.459 64.5093 112.459C64.5093 112.459 29.0498 93.8274-9.55274 82.6246C-14.3129 81.2451-11.9075 71.4399-7.19801 67.726L-8.75995 57.2564C-9.54035 52.0514-0.871423 26.6843 7.79188 24.4635C16.4619 22.2113 6.99796 39.3678 6.99796 39.3678L-1.65971 44.5897C-1.65971 44.5897 8.57904 56.5176 10.9518 56.5176C13.3076 56.5176 17.248 50.5379 17.248 50.5379L6.22318 43.1009L16.4608 38.6099L17.1072 34.6809L18.8279 34.1325L35.7897 8.44662C47.5093 3.65157 61.9147-2.29101 63.7446-3.16376C66.9046-4.64574 88.9553-17.3181 92.8967-20.2955C96.8494-23.2978 105.495-22.5343 108.642-22.5343C111.809-22.5343 116.525-24.0354 117.311-32.2539C118.098-40.4532 121.253-41.9476 123.625-39.7032C125.992-37.4881 121.253-33.7426 126.774-32.2539C132.284-30.7528 137.013-27.0241 140.96-30.7528C143.839-33.4802 139.983-36.5929 137.39-38.9408L181.136-38.9408L185.871-52.3947L175.627-53.8823L137.793-57.6041L137.793-62.0884L134.78-61.5749C138.873-84.0828 163.199-80.3722 144.883-93.3981C143.773-94.1977 127.751-68.1526 123.67-68.6571C116.281-69.6346 106.746-69.7134 104.714-67.3091C102.016-64.1368 110.754-78.219 118.271-82.4882C109.302-79.8463 93.2323-88.0096 64.257-67.5411C54.4586-60.6154 29.864-32.5568 19.7435-21.7696C-23.0133 28.7102-26.4604 71.896-26.4604 73.8116C-26.4604 77.539-17.4064 79.6438-16.6259 84.1348C-15.8332 88.583-31.5922 103.524-31.5922 110.981C-31.5922 114.408-39.4807 151.649-22.1541 198.251C-6.78585 242.459 22.9518 281.448 26.7705 283.888L37.7221 278.08C37.7221 278.08 19.6016 246.001 18.8212 243.011C18.0408 240.03 39.3032 196.763 49.5588 198.273C59.7964 199.726 57.435 202.742 63.7379 199.005C70.0465 195.298 73.9811 164.682 81.0712 161.716C88.167 158.717 96.0375 154.994 95.2559 147.536C94.435 140.054 67.6512 126.638 65.2964 124.405M236.264-94.9139L214.994-102.376L218.935-90.4296L236.264-94.9139M156.685-67.3114C159.058-67.3114 206.318-98.629 201.596-99.3846C196.88-100.122 196.093-99.3846 183.463-100.879C170.877-102.368 157.468-82.9724 154.325-79.9758C151.169-76.9949 152.231-67.3114 156.685-67.3114M373.611 157.611L379.715 149.693L373.611 147.548L369.037 153.296L363.706 161.201L368.266 163.351L373.611 157.611M400.286 183.507L398.759 171.988L388.866 171.988L388.098 180.613L378.932 179.184L376.662 169.838L372.086 166.956L366.743 173.425L361.411 171.997L359.872 177.011L365.985 178.476L365.985 225.187L387.56 230.384C387.059 231.239 386.692 231.972 386.57 232.361C385.034 237.403 392.658 239.585 397.994 237.403C399.968 236.609 412.405 231.826 416.344 222.445C421.839 209.376 425.387 190.559 426.341 184.469L423.924 179.184L408.671 184.947L400.263 183.505L400.286 183.505M392.647-7.80116C357.762-60.6987 273.942-95.2664 273.942-95.2664L252.359-83.9612L249.293-88.9758L241.68-91.8621L241.68-85.3835L248.539-79.6233L243.975-77.4702L226.427-76.0422L186.775-54.4679L190.583-37.2134L185.994-35.7674L183.725-32.1796L196.689-12.7843L197.444-6.29891L186.773-4.14463L186.773 8.79007L180.678 10.2236L181.441 20.2957L129.574 56.262L131.099 76.3656C134.906 81.405 164.656 111.606 164.656 111.606C164.656 111.606 198.962 113.028 206.589 108.733C214.221 104.419 208.87 113.047 211.171 115.206C213.441 117.371 214.221 132.46 216.49 133.901C218.785 135.332 216.49 143.949 219.541 146.853C222.593 149.707 222.593 184.229 222.593 184.229C222.593 184.229 240.895 215.136 240.895 223.045C240.895 230.951 240.125 230.232 254.621 229.511C269.106 228.804 272.156 223.045 275.208 220.897C278.258 218.749 278.258 213.709 281.308 209.378C284.383 205.055 289.703 188.546 296.574 182.799C303.418 177.027 321.735 172.709 323.247 162.665C324.774 152.588 331.629 144.679 331.629 144.679L364.6 109.805L363.673 114.491L362.917 132.452L372.838 128.863L372.082 109.438L368.53 105.673L369.032 105.125C369.032 105.125 366.738 100.81 363.701 100.81C360.647 100.81 342.334 105.125 339.296 104.41C336.243 103.684 323.273 69.1708 320.993 67.7552C318.697 66.3149 304.226 42.5761 304.226 42.5761C304.226 42.5761 337.757 82.8363 343.101 98.6517C346.199 107.863 357.841 99.2857 367.309 89.6764L369.811 95.7902L375.9 94.3375L375.145 87.1516L382.001 87.1516L382.001 97.9321L379.721 103.692L378.94 113.028L385.054 118.792L388.105 113.771L397.988 104.412L409.432 98.6595L412.496 104.412L414.021 112.325L410.97 120.946L404.87 125.979L401.821 138.92L401.821 145.387L394.961 141.067L394.206 127.421L384.296 128.151L379.734 140.36L386.591 150.437L402.6 152.599L415.558 140.36L417.083 116.662L422.857 109.042C426.614 118.7 429.3 128.804 429.3 138.225C429.3 148.548 437.475 133.013 433.475 101.532C433.478 101.531 427.206 26.7552 392.647-7.80116ZM240.144 23.173L198.971 21.7158L216.494 7.3475L225.646 7.3475L240.144 17.4016L240.144 23.173M290.488 18.1403L290.488 24.6077L272.955 24.6077L274.48 28.9331L263.79 30.3847L263.047 33.9534L255.421 32.539L241.682 29.6471L243.977 26.0649L246.271 21.7338L253.896 13.8261L256.959 19.5863L268.38 18.8588L274.481 12.379L298.129 16.6989L290.488 18.1403M292.003 8.78782L282.85 10.2214L281.337 3.74277L292.76 2.31484L294.298-4.15251L302.692 4.48038L292.003 8.77543L292.003 8.78782M336.247 232.364L330.903 236.684L331.662 247.472L338.518 247.472L338.518 238.15L344.645 230.218L344.645 213.696L340.811 212.95L336.247 232.364L336.247 232.364M285.156 210.815C285.156 210.815 279.811 212.205 285.901 214.402C292.003 216.575 316.408 179.187 316.408 179.187L295.81 192.123L285.144 210.816L285.156 210.816M243.645 348.604L239.082 344.259L229.93 342.807L228.417 347.164L216.214 345.725L215.448 339.943L206.3 339.943L196.392 345.725L178.87 345.725L177.344 341.383L149.145 338.466L144.569 342.821L133.152 339.943L131.622 329.789L126.29 329.045L120.188 339.943L99.6107 339.211C103.295 340.943 134.015 359.283 181.146 363.1C243.646 368.153 273.371 352.975 273.371 352.975L271.091 350.778L243.646 348.618L243.646 348.604C243.646 348.604 243.645 348.604 243.645 348.604Z" fill="#ff00ff" fill-rule="nonzero" opacity="1" stroke="none"/>
</g>
</g>
<g opacity="1">
<path d="M44.6911 167.52C117.777 26.739 291.605-28.4637 432.126 44.4877C573.128 117.689 628.368 291.812 555.282 432.593C482.202 573.361 308.014 628.326 167.025 555.131C99.34 519.992 49.3243 460.119 26.1385 386.559C2.96527 313.039 9.53212 235.244 44.6911 167.52Z" fill="url(#LinearGradient)" fill-rule="nonzero" opacity="1" stroke="#fc466b" stroke-linecap="butt" stroke-linejoin="round" stroke-opacity="0" stroke-width="10"/>
<g fill="#ffffff" opacity="1" stroke="#fc466b" stroke-linecap="butt" stroke-linejoin="round" stroke-opacity="0" stroke-width="10">
<path clip-path="url(#TextBounds)" d="M144.598 229.091C144.598 221.358 146.664 214.891 150.798 209.691C154.931 204.491 160.998 201.891 168.998 201.891L175.398 201.891L175.398 201.091C175.398 192.024 176.131 183.024 177.598 174.091C179.064 165.158 181.664 156.558 185.398 148.291C188.064 141.624 191.731 135.958 196.398 131.291C201.064 126.624 206.264 122.824 211.998 119.891C217.731 116.958 223.864 114.824 230.398 113.491C236.931 112.158 243.531 111.491 250.198 111.491C251.531 111.491 253.131 111.558 254.998 111.691C256.864 111.824 258.998 111.891 261.398 111.891C265.398 112.158 269.398 112.758 273.398 113.691C277.398 114.624 280.931 116.091 283.998 118.091C287.064 120.091 289.531 122.758 291.398 126.091C293.264 129.424 294.198 133.491 294.198 138.291C294.198 147.624 291.598 154.624 286.398 159.291C281.198 163.958 273.931 166.291 264.598 166.291L263.798 166.291C258.464 166.291 254.331 167.291 251.398 169.291C248.464 171.291 246.264 173.891 244.798 177.091C243.331 180.291 242.464 184.024 242.198 188.291C241.931 192.558 241.798 196.824 241.798 201.091L241.798 201.891L263.398 201.891C271.398 201.891 277.464 204.491 281.598 209.691C285.731 214.891 287.798 221.358 287.798 229.091C287.798 236.824 285.798 243.358 281.798 248.691C277.798 254.024 271.664 256.691 263.398 256.691L248.198 256.691C239.664 256.424 231.464 257.491 223.598 259.891C215.731 262.291 208.598 265.691 202.198 270.091C195.798 274.491 190.264 279.624 185.598 285.491C180.931 291.358 177.531 297.491 175.398 303.891L175.398 256.691L168.998 256.691C160.731 256.691 154.598 254.024 150.598 248.691C146.598 243.358 144.598 236.824 144.598 229.091ZM175.398 332.291C175.398 322.691 177.198 314.158 180.798 306.691C184.398 299.224 189.264 292.891 195.398 287.691C201.531 282.491 208.598 278.424 216.598 275.491C224.598 272.558 232.998 270.958 241.798 270.691L241.798 351.091C241.798 362.291 239.331 371.691 234.398 379.291C229.464 386.891 220.998 390.691 208.998 390.691C196.998 390.691 188.398 386.891 183.198 379.291C177.998 371.691 175.398 362.291 175.398 351.091L175.398 332.291Z"/>
<path clip-path="url(#TextBounds)" d="M325.298 262.891C331.098 256.491 338.348 251.541 347.048 248.041C355.748 244.541 364.698 242.791 373.898 242.791C382.298 242.791 390.298 244.441 397.898 247.741C405.498 251.041 411.698 256.391 416.498 263.791C419.898 252.591 428.198 246.991 441.398 246.991C450.398 246.991 456.798 249.691 460.598 255.091C464.398 260.491 466.298 267.691 466.298 276.691L466.298 388.591C466.298 401.991 464.048 413.291 459.548 422.491C455.048 431.691 449.098 439.141 441.698 444.841C434.298 450.541 425.748 454.641 416.048 457.141C406.348 459.641 396.298 460.891 385.898 460.891C382.698 460.891 378.098 460.641 372.098 460.141C366.098 459.641 359.948 458.791 353.648 457.591C347.348 456.391 341.548 454.741 336.248 452.641C330.948 450.541 327.398 447.891 325.598 444.691C323.398 441.291 322.148 438.091 321.848 435.091C321.548 432.091 321.998 428.891 323.198 425.491C324.598 421.291 326.748 418.441 329.648 416.941C332.548 415.441 335.998 414.691 339.998 414.691C345.598 414.691 351.998 415.541 359.198 417.241C366.398 418.941 373.698 419.791 381.098 419.791C385.698 419.791 390.098 419.241 394.298 418.141C398.498 417.041 402.598 414.991 406.598 411.991C410.798 408.791 413.698 403.891 415.298 397.291C416.898 390.691 417.198 383.991 416.198 377.191C415.198 370.391 412.948 364.391 409.448 359.191C405.948 353.991 401.398 351.191 395.798 350.791C401.798 348.791 406.448 345.391 409.748 340.591C413.048 335.791 415.198 330.541 416.198 324.841C417.198 319.141 416.998 313.391 415.598 307.591C414.198 301.791 411.798 296.991 408.398 293.191C402.598 286.791 395.398 283.591 386.798 283.591C382.998 283.591 379.298 284.291 375.698 285.691C372.098 287.091 368.898 289.191 366.098 291.991C363.298 294.791 361.048 298.341 359.348 302.641C357.648 306.941 356.798 311.991 356.798 317.791C356.798 326.791 358.848 334.241 362.948 340.141C367.048 346.041 373.898 349.791 383.498 351.391C386.298 351.991 389.048 353.241 391.748 355.141C394.448 357.041 396.798 359.391 398.798 362.191C400.798 364.991 402.348 368.191 403.448 371.791C404.548 375.391 404.898 379.191 404.498 383.191C399.698 387.391 394.948 389.991 390.248 390.991C385.548 391.991 380.498 392.491 375.098 392.491C353.898 392.491 337.198 385.791 324.998 372.391C318.998 365.591 314.448 357.341 311.348 347.641C308.248 337.941 306.698 327.941 306.698 317.641C306.698 307.341 308.248 297.341 311.348 287.641C314.448 277.941 319.098 269.691 325.298 262.891Z"/>
</g>
</g>
</g>
</svg>
